<svg width="38" height="40" viewBox="0 0 38 40" fill="none" xmlns="http://www.w3.org/2000/svg">
<path d="M17.8495 34.0693H13.1084H11.5772C7.54955 34.0693 4.27169 33.8298 4.27169 29.85V19.8138H1.9525C1.16128 19.8138 0.450579 19.3392 0.148076 18.6152C-0.153612 17.8871 0.0146876 17.0521 0.570897 16.4957L15.9895 1.13951C16.7263 0.404948 17.7078 0 18.7495 0C19.7919 0 20.7734 0.404948 21.5102 1.13951C24.062 3.68099 25.9758 5.58711 27.2517 6.85785C27.3443 6.95007 27.6006 7.20533 27.6556 7.26009C27.6923 7.29661 27.7106 7.0449 27.7106 6.50497C27.8058 5.163 28.9141 4.10368 30.2868 4.10368H30.3022C31.735 4.10368 32.8946 5.25856 32.8946 6.68476V12.047C32.8946 12.1895 32.8751 12.3135 32.8532 12.4398L36.9288 16.4957C37.4874 17.0521 37.6533 17.8871 37.3508 18.6152C37.0491 19.3392 36.3376 19.8138 35.5472 19.8138H32.8946V21.0969C35.6707 22.9448 37.5 26.1025 37.5 29.6875C37.5 35.3829 32.8829 40 27.1875 40C23.0588 40 19.4968 37.5738 17.8495 34.0693ZM27.1875 39.0625C32.3652 39.0625 36.5625 34.8652 36.5625 29.6875C36.5625 24.5098 32.3652 20.3125 27.1875 20.3125C22.0098 20.3125 17.8125 24.5098 17.8125 29.6875C17.8125 34.8652 22.0098 39.0625 27.1875 39.0625ZM31.0647 31.4079C31.0647 32.0977 30.8174 32.6941 30.3229 33.1969C29.8284 33.6997 29.1115 34.0218 28.1724 34.1631V34.7989C28.1724 35.212 27.8375 35.5469 27.4244 35.5469C27.0113 35.5469 26.6763 35.212 26.6763 34.7989V34.2129C26.053 34.1714 25.4629 34.0654 24.9061 33.895C24.5596 33.789 24.2501 33.6677 23.9777 33.5311C23.7152 33.3996 23.6026 33.0849 23.722 32.8168C23.726 32.8078 23.7298 32.7992 23.7334 32.7911L24.1389 31.8806C24.2346 31.6655 24.4864 31.5688 24.7015 31.6645C24.7111 31.6688 24.7205 31.6735 24.7298 31.6785C24.7514 31.6901 24.7717 31.7006 24.7905 31.7102C25.066 31.8495 25.3664 31.969 25.6915 32.0687C26.2068 32.2266 26.7138 32.3055 27.2124 32.3055C28.1599 32.3055 28.6336 32.0686 28.6336 31.5949C28.6336 31.3456 28.4986 31.1606 28.2284 31.0401C27.9583 30.9196 27.5241 30.7929 26.9256 30.6599C26.2691 30.5186 25.7206 30.3669 25.2801 30.2049C24.8396 30.0428 24.4614 29.7831 24.1456 29.4257C23.8297 29.0683 23.6719 28.5863 23.6719 27.9795C23.6719 27.2648 23.9295 26.6518 24.4448 26.1407C24.9601 25.6296 25.7039 25.3158 26.6763 25.1995V24.5761C26.6763 24.163 27.0113 23.8281 27.4244 23.8281C27.8375 23.8281 28.1724 24.163 28.1724 24.5761V25.1745C28.6461 25.2161 29.1012 25.2992 29.5375 25.4239C29.845 25.5117 30.1288 25.6182 30.3889 25.7432C30.4106 25.7536 30.4352 25.7659 30.4626 25.7801C30.5997 25.8507 30.6598 26.0146 30.6007 26.1571L30.0347 27.5208C29.9879 27.6336 29.8585 27.6871 29.7456 27.6403C29.7406 27.6382 29.7357 27.636 29.7309 27.6336C29.6894 27.6127 29.6541 27.5953 29.6249 27.5815C28.9057 27.2401 28.2054 27.0695 27.5241 27.0695C27.0337 27.0695 26.6763 27.1422 26.4519 27.2877C26.2275 27.4331 26.1153 27.6222 26.1153 27.8549C26.1153 28.0876 26.2483 28.2621 26.5143 28.3785C26.7802 28.4948 27.2083 28.6154 27.7984 28.74C28.4633 28.8813 29.0139 29.033 29.4502 29.1951C29.8866 29.3571 30.2647 29.6148 30.5847 29.968C30.9047 30.3212 31.0647 30.8012 31.0647 31.4079Z" fill="#FF5A3C"/>
</svg>
