<svg width="40" height="40" viewBox="0 0 40 40" fill="none" xmlns="http://www.w3.org/2000/svg">
<g clip-path="url(#clip0_9_1206)">
<path d="M17.1872 35.1603H2.62671V30.4447C2.62671 29.4519 3.04036 28.5005 3.8263 27.88C8.08689 24.364 12.7198 22.0476 13.6298 21.5926C13.7539 21.5512 13.7953 21.4271 13.7953 21.303V18.8625C13.1748 17.787 12.8025 16.5874 12.637 15.5119C12.2648 15.4705 11.7684 14.9741 11.2306 13.0714C10.5688 10.6722 11.1893 10.1758 11.8097 10.1758C11.8511 10.1758 11.8925 10.1758 11.9338 10.1758C11.4375 8.81075 11.4375 7.48707 11.7684 6.28749C12.0993 4.83971 12.8852 3.68149 13.7539 2.77146C14.2917 2.19235 14.9535 1.6546 15.6153 1.24095C16.1531 0.868666 16.7736 0.537746 17.394 0.33092C17.9318 0.16546 18.4695 0.0413651 19.0486 0.0413651C19.2968 9.24581e-09 19.5036 0 19.7518 0C21.1996 0 22.3165 0.41365 23.1438 0.910031C24.5915 1.69597 25.1293 2.77146 25.1293 2.77146C25.1293 2.77146 28.7694 3.01965 27.1562 10.6308C27.6526 10.7963 27.9835 11.4581 27.4044 13.485C26.8666 15.4292 26.3289 15.9255 25.9566 15.9255C25.8325 15.9255 25.7498 15.8842 25.667 15.8428C25.5016 16.7115 25.2534 17.6215 24.8397 18.4902C24.8397 19.7311 24.8397 20.8893 24.8397 21.3444C24.8397 21.4685 24.9225 21.5512 25.0052 21.6339C25.4188 21.8407 26.6184 22.4612 28.2317 23.3713C28.1076 23.4953 27.9421 23.6194 27.818 23.7435C26.7012 24.819 26.1221 26.2254 26.1221 27.8387C26.1221 29.7415 26.7839 30.9411 27.4871 31.6856C27.0321 31.8097 26.6598 32.0579 26.3289 32.3888C25.8739 32.8852 25.6257 33.5057 25.667 34.1675C25.667 34.5398 25.7498 34.8707 25.7911 35.2017H21.5719H17.1872V35.1603ZM33.6091 21.9235H32.2027C31.9959 21.9235 31.8304 22.0889 31.8304 22.2958V23.9504C30.7549 24.1158 29.9276 24.4881 29.2658 25.1086C28.5626 25.8118 28.1903 26.6805 28.1903 27.7559C28.1903 28.9555 28.5212 29.8242 29.2244 30.4447C29.9276 31.0651 31.0031 31.6443 32.4923 32.2647C33.1127 32.5129 33.5264 32.8025 33.7746 33.092C34.0228 33.3816 34.1469 33.7539 34.1469 34.2503C34.1469 34.6639 34.0228 35.0362 33.7746 35.2844C33.5264 35.5326 33.1955 35.698 32.7405 35.698C32.2027 35.698 31.7477 35.5326 31.4168 35.1603C31.1272 34.8707 30.9618 34.4571 30.9204 33.878C30.9204 33.6711 30.7136 33.4643 30.4654 33.4643L28.1903 33.5057C27.9421 33.5057 27.7353 33.7125 27.7353 33.9607C27.7767 35.1603 28.1903 36.1117 28.8935 36.7735C29.6794 37.4767 30.6722 37.8904 31.8304 38.0558V39.6277C31.8304 39.8345 31.9959 40 32.2027 40H33.6091C33.816 40 33.9814 39.8345 33.9814 39.6277V38.0145C34.9328 37.849 35.6774 37.4767 36.2979 36.8976C37.0011 36.2358 37.332 35.3257 37.332 34.2503C37.332 33.092 37.0011 32.182 36.2979 31.5615C35.5946 30.9411 34.5192 30.3206 33.03 29.7001C32.4095 29.4105 31.9545 29.1624 31.7477 28.8728C31.4995 28.5832 31.4168 28.2523 31.4168 27.7973C31.4168 27.3837 31.5409 27.0114 31.7477 26.7218C31.9545 26.4323 32.2854 26.3082 32.7405 26.3082C33.1955 26.3082 33.5264 26.4736 33.816 26.8046C34.0228 27.0941 34.1469 27.4664 34.1882 27.9628C34.1882 28.1696 34.3951 28.3351 34.6433 28.3351L36.9183 28.2937C37.1665 28.2937 37.3733 28.0869 37.3733 27.8387C37.332 26.8459 37.0011 26.0186 36.4219 25.3154C35.8015 24.6122 35.0155 24.1572 34.0228 23.9504V22.213C34.0228 22.0889 33.816 21.9235 33.6091 21.9235Z" fill="#FF5A3C"/>
</g>
<defs>
<clipPath id="clip0_9_1206">
<rect width="40" height="40" fill="white"/>
</clipPath>
</defs>
</svg>
