<svg width="18" height="20" viewBox="0 0 18 20" fill="none" xmlns="http://www.w3.org/2000/svg">
<path fill-rule="evenodd" clip-rule="evenodd" d="M8.04869 0.20764C8.54703 -0.0692138 9.15298 -0.0692132 9.65131 0.207641L16.8513 4.20764C17.3751 4.49865 17.7 5.05077 17.7 5.65V13.5909C17.7 14.1901 17.3751 14.7422 16.8513 15.0332L9.65131 19.0332C9.15298 19.3101 8.54703 19.3101 8.04869 19.0332L0.848688 15.0332C0.32487 14.7422 0 14.1901 0 13.5909V5.65C0 5.05077 0.324872 4.49865 0.848689 4.20764L8.04869 0.20764ZM8.92285 1.51888C8.87754 1.49371 8.82246 1.49371 8.77715 1.51888L1.57715 5.51888C1.52953 5.54533 1.5 5.59553 1.5 5.65V13.5909C1.5 13.6454 1.52953 13.6955 1.57715 13.722L8.77715 17.722C8.82246 17.7472 8.87754 17.7472 8.92285 17.722L16.1228 13.722C16.1705 13.6955 16.2 13.6453 16.2 13.5909V5.65C16.2 5.59553 16.1705 5.54533 16.1228 5.51888L8.92285 1.51888Z" fill="#FF5A3C"/>
<path fill-rule="evenodd" clip-rule="evenodd" d="M4.1 9.62044C4.1 6.99708 6.22665 4.87044 8.85 4.87044C11.4734 4.87044 13.6 6.99708 13.6 9.62044C13.6 12.2438 11.4734 14.3704 8.85 14.3704C6.22665 14.3704 4.1 12.2438 4.1 9.62044ZM8.85 6.37044C7.05507 6.37044 5.6 7.82551 5.6 9.62044C5.6 11.4154 7.05507 12.8704 8.85 12.8704C10.6449 12.8704 12.1 11.4154 12.1 9.62044C12.1 7.82551 10.6449 6.37044 8.85 6.37044Z" fill="#FF5A3C"/>
</svg>
