<svg width="20" height="20" viewBox="0 0 20 20" fill="none" xmlns="http://www.w3.org/2000/svg">
<circle cx="10" cy="10" r="10" fill="#FF5A3C"/>
<g clip-path="url(#clip0_9_972)">
<path d="M9.99998 5.3335C7.42275 5.3335 5.33331 7.42293 5.33331 10.0002C5.33331 12.5774 7.42275 14.6668 9.99998 14.6668C12.5772 14.6668 14.6666 12.5774 14.6666 10.0002C14.6666 7.42293 12.5772 5.3335 9.99998 5.3335ZM11.3404 11.8399C11.1369 12.0877 10.8719 12.2548 10.5627 12.3393C10.4282 12.3757 10.3668 12.4468 10.3745 12.587C10.3802 12.7253 10.3745 12.8616 10.3725 12.9999C10.3725 13.1228 10.3092 13.1881 10.1882 13.1919C10.1094 13.1939 10.0307 13.1958 9.95197 13.1958C9.88283 13.1958 9.8137 13.1958 9.74456 13.1939C9.61397 13.1919 9.55252 13.117 9.55252 12.9903C9.5506 12.8904 9.5506 12.7886 9.5506 12.6888C9.54868 12.466 9.54099 12.4583 9.32783 12.4238C9.05512 12.3796 8.78626 12.3181 8.53661 12.1971C8.34072 12.1011 8.3196 12.0531 8.37529 11.8457C8.41754 11.6921 8.45979 11.5384 8.5078 11.3867C8.54237 11.2753 8.57501 11.2254 8.63455 11.2254C8.66912 11.2254 8.71329 11.2427 8.77282 11.2734C9.04936 11.4174 9.34319 11.4981 9.65238 11.5365C9.70423 11.5423 9.75608 11.5461 9.80794 11.5461C9.95197 11.5461 10.0922 11.5192 10.2285 11.4597C10.5723 11.3099 10.626 10.9124 10.3361 10.6742C10.2381 10.5936 10.1248 10.534 10.0077 10.4822C9.70615 10.3497 9.39312 10.2498 9.1089 10.0789C8.64799 9.80236 8.35608 9.42403 8.39065 8.86326C8.42906 8.22952 8.78818 7.83391 9.37008 7.62266C9.61013 7.53624 9.61205 7.53816 9.61205 7.2885C9.61205 7.204 9.61013 7.1195 9.61397 7.03308C9.61973 6.84488 9.65046 6.81223 9.83866 6.80647C9.85979 6.80647 9.88283 6.80647 9.90396 6.80647C9.94045 6.80647 9.97693 6.80647 10.0134 6.80647C10.0288 6.80647 10.0441 6.80647 10.0576 6.80647C10.4148 6.80647 10.4148 6.82184 10.4167 7.20784C10.4186 7.49207 10.4186 7.49207 10.7009 7.53624C10.9179 7.57081 11.1234 7.63418 11.3232 7.72252C11.4326 7.77053 11.4749 7.84735 11.4403 7.9645C11.3904 8.13734 11.3424 8.3121 11.2886 8.48302C11.254 8.58672 11.2214 8.63473 11.1599 8.63473C11.1254 8.63473 11.0831 8.62129 11.0293 8.5944C10.7528 8.45997 10.4628 8.39468 10.1594 8.39468C10.121 8.39468 10.0806 8.3966 10.0422 8.39852C9.95197 8.40428 9.86363 8.4158 9.77913 8.45229C9.47954 8.58288 9.43153 8.91319 9.68695 9.11676C9.81562 9.22046 9.96349 9.29344 10.1152 9.35682C10.3802 9.46628 10.6452 9.5719 10.8968 9.71018C11.688 10.1519 11.9031 11.1563 11.3404 11.8399Z" fill="white"/>
</g>
<defs>
<clipPath id="clip0_9_972">
<rect width="9.33333" height="9.33333" fill="white" transform="translate(5.33331 5.3335)"/>
</clipPath>
</defs>
</svg>
