<svg width="24" height="23" viewBox="0 0 24 23" fill="none" xmlns="http://www.w3.org/2000/svg">
<path d="M17.6392 14.5604L19.4155 22.9998L11.9995 18.6895V12.7139L17.6392 14.5604Z" fill="#FEE25D"/>
<path d="M19.4155 22.9998L17.6392 14.5604L11.9995 12.7139L19.4155 22.9998Z" fill="#FAC030"/>
<path d="M11.9995 18.6895L4.5835 22.9998L6.35981 14.5604L11.9995 12.7139V18.6895Z" fill="#FFF277"/>
<path d="M4.5835 22.9998L11.9995 18.6895V12.7139L4.5835 22.9998Z" fill="#FED835"/>
<path d="M15.4864 7.87988L24.0002 8.78539L17.6406 14.5608L12.0009 12.7143L15.4864 7.87988Z" fill="#FED839"/>
<path d="M17.6397 14.5611L23.9994 8.78564L12 12.7145L17.6397 14.5611Z" fill="#FAA922"/>
<path d="M6.35991 14.5608L0.000244141 8.78539L8.51409 7.87988L11.9996 12.7143L6.35991 14.5608Z" fill="#FDF5A3"/>
<path d="M0 8.78564L6.35967 14.5611L11.9994 12.7145L0 8.78564Z" fill="#FBDA37"/>
<path d="M11.9994 0L15.485 7.8797L11.9994 12.7141L8.51392 7.8797L11.9994 0Z" fill="#FEF278"/>
<path d="M15.4847 7.8797L11.9991 0V12.7141L15.4847 7.8797Z" fill="#FCC02C"/>
</svg>
