<svg width="18" height="12" viewBox="0 0 18 12" fill="none" xmlns="http://www.w3.org/2000/svg">
<path opacity="0.4" d="M12.7975 7.19043L16.4967 7.51758C17.3269 7.51758 18 6.83794 18 5.99968C18 5.16142 17.3269 4.48178 16.4967 4.48178L12.7975 4.80893C12.1463 4.80893 11.6183 5.34207 11.6183 5.99968C11.6183 6.65839 12.1463 7.19043 12.7975 7.19043Z" fill="#FF5A3C"/>
<path d="M0.375278 7.13016C0.433096 7.18854 0.649094 7.43529 0.852 7.64017C2.03562 8.92344 5.12613 11.0218 6.74284 11.664C6.98829 11.7665 7.60901 11.9846 7.94173 12C8.25918 12 8.56245 11.9262 8.85154 11.7808C9.21263 11.577 9.50062 11.2554 9.65989 10.8764C9.76135 10.6143 9.92062 9.82669 9.92062 9.81237C10.0788 8.95208 10.165 7.55315 10.165 6.00661C10.165 4.53497 10.0788 3.19332 9.94898 2.31871C9.9348 2.30329 9.77553 1.32623 9.60208 0.991371C9.28463 0.378924 8.66391 0 7.99955 0H7.94173C7.50865 0.0143194 6.59884 0.394346 6.59884 0.407564C5.06831 1.04975 2.05089 3.04681 0.837818 4.37415C0.837818 4.37415 0.495277 4.71562 0.346915 4.92822C0.115645 5.23444 1.04904e-05 5.61337 1.04904e-05 5.99229C1.04904e-05 6.41527 0.129827 6.80852 0.375278 7.13016Z" fill="#FF5A3C"/>
</svg>
