<svg width="56" height="47" viewBox="0 0 56 47" fill="none" xmlns="http://www.w3.org/2000/svg">
<path fill-rule="evenodd" clip-rule="evenodd" d="M19.917 21.1826C8.91705 21.1826 4.57764e-05 30.0996 4.57764e-05 41.0989C4.57764e-05 42.8447 0.225544 44.5369 0.647423 46.15H38.5921C39.5158 46.3436 40.4726 46.4459 41.4538 46.4459C49.1269 46.4459 55.3467 40.2261 55.3467 32.553C55.3467 24.88 49.1269 18.6602 41.4538 18.6602C36.9371 18.6602 32.9242 20.8163 30.3868 24.1547C27.3443 22.2708 23.758 21.1826 19.917 21.1826ZM36.0229 35.0728L39.1142 34.6021C39.2442 35.196 39.5097 35.6477 39.9126 35.9538C40.3121 36.2632 40.8762 36.417 41.596 36.417C42.391 36.417 42.9883 36.2707 43.3919 35.9802C43.6607 35.7743 43.7948 35.4987 43.7948 35.1547C43.7948 34.9238 43.7203 34.7295 43.5747 34.5764C43.4217 34.4308 43.0784 34.2927 42.5481 34.1694C40.0656 33.6209 38.4946 33.1205 37.8296 32.6688C36.908 32.0384 36.4488 31.1648 36.4488 30.0488C36.4488 29.0371 36.8484 28.1893 37.6434 27.5027C38.2203 27.0043 39.0275 26.6867 40.0649 26.5499V24.9667H42.8441V26.5661C43.6993 26.6846 44.3799 26.9135 44.885 27.2528C45.6577 27.7749 46.1913 28.5442 46.4825 29.5633L43.593 30.101C43.4698 29.6452 43.2314 29.2945 42.884 29.052C42.5366 28.8089 42.0402 28.6898 41.3949 28.6898C40.5809 28.6898 39.9986 28.8015 39.6437 29.0297C39.4088 29.1902 39.293 29.3988 39.293 29.6527C39.293 29.8728 39.3939 30.0597 39.599 30.2127C39.8794 30.4179 40.8383 30.7057 42.4811 31.0788C44.1232 31.4519 45.2697 31.9077 45.9191 32.4487C46.5644 32.9939 46.8854 33.7591 46.8854 34.7369C46.8854 35.8007 46.4412 36.719 45.5494 37.4842C44.8864 38.055 43.9851 38.4139 42.8441 38.5595V40.1394H40.0649V38.5175C39.1812 38.3726 38.4377 38.0909 37.8337 37.6745C36.9113 37.0359 36.3073 36.1705 36.0229 35.0728ZM41.4538 22.2092C35.7405 22.2092 31.11 26.8404 31.11 32.553C31.11 38.2663 35.7405 42.8975 41.4538 42.8975C47.1671 42.8975 51.7976 38.2663 51.7976 32.553C51.7976 26.8404 47.1671 22.2092 41.4538 22.2092ZM19.917 0C14.9764 0 10.9716 4.0048 10.9716 8.94544C10.9716 13.8861 14.9764 17.8909 19.917 17.8909C24.857 17.8909 28.8625 13.8861 28.8625 8.94544C28.8625 4.0048 24.857 0 19.917 0Z" fill="#FF5A3C"/>
</svg>
