<svg width="51" height="40" viewBox="0 0 51 40" fill="none" xmlns="http://www.w3.org/2000/svg">
<path d="M12.7631 12.9263C13.2804 12.3402 13.2604 11.4461 12.7 10.8857C12.1174 10.303 11.1725 10.303 10.5897 10.8857L9.85734 11.6181V5.62068C9.85734 4.16706 11.04 2.98443 12.4936 2.98443C13.9472 2.98443 15.1298 4.16706 15.1298 5.62068C15.1298 6.44478 15.798 7.11289 16.6221 7.11289C17.4462 7.11289 18.1143 6.44478 18.1143 5.62068C18.1143 2.52145 15.5928 0 12.4936 0C9.39436 0 6.87291 2.52145 6.87291 5.62068V11.6181L6.14053 10.8857C5.55787 10.303 4.613 10.303 4.03024 10.8857C3.46987 11.4461 3.44997 12.3401 3.96717 12.9263H12.7631Z" fill="#FF5A3C"/>
<path d="M49.4431 15.9111H1.49222C0.668114 15.9111 0 16.5792 0 17.4033C0 18.2274 0.668114 18.8955 1.49222 18.8955H2.05359C2.82655 21.8216 3.60091 24.7474 4.37697 27.6728C5.31855 31.2219 7.77962 33.9494 10.973 35.2557L9.59355 36.9562C9.07436 37.5963 9.17245 38.536 9.81241 39.0552C10.0889 39.2794 10.4212 39.3885 10.7515 39.3885C11.1857 39.3885 11.6164 39.1998 11.9113 38.8363L14.1744 36.0464C14.5574 36.0841 14.9452 36.1057 15.3385 36.1057H35.6007C35.9977 36.1057 36.3893 36.0837 36.7758 36.0453L39.0399 38.8364C39.3349 39.1999 39.7654 39.3886 40.1997 39.3886C40.53 39.3886 40.8624 39.2795 41.1388 39.0553C41.7788 38.5361 41.8768 37.5964 41.3576 36.9563L39.9753 35.2522C43.1653 33.9441 45.6231 31.2171 46.5632 27.6695C47.4015 24.5051 48.1677 21.6225 48.8952 18.8956H49.4429C50.267 18.8956 50.9351 18.2275 50.9351 17.4034C50.9351 16.5793 50.2672 15.9111 49.4431 15.9111Z" fill="#FF5A3C"/>
</svg>
