<svg width="37" height="38" viewBox="0 0 37 38" fill="none" xmlns="http://www.w3.org/2000/svg">
<path d="M15.2555 0H21.1345V7.08789H15.2555V0Z" fill="#FF5A3C"/>
<path d="M15.2555 9.81566H21.1345V13.4518H15.2555V9.81566Z" fill="#FF5A3C"/>
<path d="M1.07786 38C0.482573 38 0 37.5174 0 36.9221V9.81566H12.5265V14.8158C12.5265 15.5692 13.1372 16.1799 13.8906 16.1799H22.4977C23.251 16.1799 23.8617 15.5692 23.8617 14.8158V9.81566H36.5452V36.9221C36.5452 37.5174 36.0626 38 35.4674 38H1.07786Z" fill="#FF5A3C"/>
<path d="M23.8605 7.08789H36.5439V1.892C36.5439 0.847033 35.84 0 34.9717 0H23.8605V7.08789Z" fill="#FF5A3C"/>
<path d="M1.30659 0H12.5266V7.08789H0V1.57238C0 0.703981 0.58501 0 1.30659 0Z" fill="#FF5A3C"/>
</svg>
