<svg width="49" height="35" viewBox="0 0 49 35" fill="none" xmlns="http://www.w3.org/2000/svg">
<path d="M5.05148 12.1234H10.1029C9.79172 12.1234 9.49868 11.9799 9.30679 11.7354C9.1148 11.491 9.04812 11.1717 9.12295 10.8686L9.75138 8.35709C10.0888 7.00533 11.2991 6.0617 12.6913 6.0617H19.1955C20.8665 6.0617 22.2263 7.42151 22.2263 9.09255V11.1131C22.2263 11.6708 21.7737 12.1234 21.216 12.1234H27.2777C26.7201 12.1234 26.2674 11.6708 26.2674 11.1131V9.09255C26.2674 7.42151 27.6272 6.0617 29.2983 6.0617H35.8025C37.1947 6.0617 38.4049 7.00533 38.7424 8.35709L39.3708 10.8686C39.4476 11.1697 39.3789 11.491 39.187 11.7354C38.995 11.9799 38.702 12.1234 38.3909 12.1234H43.4423C44 12.1234 44.4526 11.6708 44.4526 11.1131V5.05138C44.4526 2.26708 42.1855 0 39.4012 0H9.09264C6.30833 0 4.04126 2.26708 4.04126 5.05138V11.1131C4.04126 11.6708 4.4938 12.1234 5.05148 12.1234Z" fill="#FF5A3C"/>
<path d="M43.4422 14.1442H5.05138C2.26708 14.1442 0 16.4113 0 19.1956V33.3395C0 33.8972 0.452638 34.3498 1.01031 34.3498C1.56799 34.3498 2.02063 33.8972 2.02063 33.3395V30.3087H46.473V33.3395C46.473 33.8972 46.9257 34.3498 47.4834 34.3498C48.041 34.3498 48.4937 33.8972 48.4937 33.3395V19.1956C48.4936 16.4113 46.2265 14.1442 43.4422 14.1442ZM46.473 28.2881H2.02053V26.2676H46.473L46.473 28.2881Z" fill="#FF5A3C"/>
</svg>
