<svg width="35" height="35" viewBox="0 0 35 35" fill="none" xmlns="http://www.w3.org/2000/svg">
<path d="M1.75277 0.301781L8.72737 7.27638L5.84521 10.1585C5.44423 10.5595 5.44423 11.2096 5.84521 11.6106C6.24612 12.0115 6.89626 12.0116 7.29724 11.6106L10.1795 8.72834L13.1083 11.6571L10.2261 14.5393C9.82511 14.9403 9.82511 15.5903 10.2261 15.9913C10.627 16.3922 11.2771 16.3923 11.6781 15.9913L14.5604 13.1091L17.4891 16.0379L14.607 18.92C14.206 19.321 14.206 19.9711 14.607 20.3721C15.0079 20.773 15.658 20.773 16.059 20.3721L18.9412 17.4898L21.87 20.4186L18.9879 23.3008C18.5869 23.7018 18.5869 24.3518 18.9879 24.7528C19.3888 25.1537 20.0389 25.1538 20.4399 24.7528L23.3221 21.8706L26.2509 24.7994L23.3687 27.6815C22.9678 28.0825 22.9678 28.7326 23.3687 29.1336C23.7696 29.5345 24.4198 29.5345 24.8208 29.1336L27.703 26.2513L34.6773 33.2263C35.3223 33.8713 34.8647 34.9791 33.9513 34.9791H1.02679C0.459747 34.9791 3.8147e-05 34.5194 3.8147e-05 33.9524V1.02783C-3.05176e-05 0.115733 1.10688 -0.344047 1.75277 0.301781ZM6.63964 27.3127C6.63964 27.8798 7.09935 28.3395 7.66639 28.3395H16.9756C17.8872 28.3395 18.3479 27.233 17.7016 26.5867L8.39238 17.2774C7.74737 16.6324 6.63964 17.0901 6.63964 18.0035V27.3127Z" fill="#FF5A3C"/>
</svg>
