<svg width="15" height="15" viewBox="0 0 15 15" fill="none" xmlns="http://www.w3.org/2000/svg">
<path d="M14.5312 7.26562C14.5312 3.25195 11.2793 0 7.26562 0C3.25195 0 0 3.25195 0 7.26562C0 10.3711 1.9043 12.9785 4.59961 14.0332C4.54102 13.4766 4.48242 12.5977 4.62891 11.9531C4.77539 11.3965 5.47852 8.34961 5.47852 8.34961C5.47852 8.34961 5.27344 7.91016 5.27344 7.26562C5.27344 6.26953 5.85938 5.50781 6.5918 5.50781C7.20703 5.50781 7.5 5.97656 7.5 6.5332C7.5 7.14844 7.08984 8.08594 6.88477 8.96484C6.73828 9.66797 7.26562 10.2539 7.96875 10.2539C9.25781 10.2539 10.2539 8.90625 10.2539 6.94336C10.2539 5.18555 8.99414 3.98438 7.23633 3.98438C5.15625 3.98438 3.95508 5.53711 3.95508 7.11914C3.95508 7.76367 4.18945 8.4375 4.48242 8.78906C4.54102 8.84766 4.54102 8.93555 4.54102 8.99414C4.48242 9.22852 4.33594 9.72656 4.33594 9.81445C4.30664 9.96094 4.21875 9.99023 4.07227 9.93164C3.16406 9.49219 2.60742 8.17383 2.60742 7.08984C2.60742 4.80469 4.27734 2.69531 7.41211 2.69531C9.93164 2.69531 11.8945 4.51172 11.8945 6.91406C11.8945 9.4043 10.3125 11.4258 8.11523 11.4258C7.38281 11.4258 6.67969 11.0449 6.44531 10.5762C6.44531 10.5762 6.09375 11.9824 6.00586 12.3047C5.83008 12.9492 5.39062 13.7402 5.09766 14.209C5.77148 14.4434 6.50391 14.5312 7.26562 14.5312C11.2793 14.5312 14.5312 11.2793 14.5312 7.26562Z" fill="white"/>
</svg>
