<svg width="17" height="12" viewBox="0 0 17 12" fill="none" xmlns="http://www.w3.org/2000/svg">
<path d="M15.6738 1.78711C15.498 1.08398 14.9414 0.527344 14.2676 0.351562C13.0078 0 8.02734 0 8.02734 0C8.02734 0 3.01758 0 1.75781 0.351562C1.08398 0.527344 0.527344 1.08398 0.351562 1.78711C0 3.01758 0 5.6543 0 5.6543C0 5.6543 0 8.26172 0.351562 9.52148C0.527344 10.2246 1.08398 10.752 1.75781 10.9277C3.01758 11.25 8.02734 11.25 8.02734 11.25C8.02734 11.25 13.0078 11.25 14.2676 10.9277C14.9414 10.752 15.498 10.2246 15.6738 9.52148C16.0254 8.26172 16.0254 5.6543 16.0254 5.6543C16.0254 5.6543 16.0254 3.01758 15.6738 1.78711ZM6.38672 8.02734V3.28125L10.5469 5.6543L6.38672 8.02734Z" fill="white"/>
</svg>
