<svg width="13" height="15" viewBox="0 0 13 15" fill="none" xmlns="http://www.w3.org/2000/svg">
<path fill-rule="evenodd" clip-rule="evenodd" d="M2.66042 6.19792C2.66042 4.33971 4.16679 2.83333 6.025 2.83333C7.88321 2.83333 9.38959 4.33971 9.38959 6.19792C9.38959 8.05613 7.88321 9.5625 6.025 9.5625C4.16679 9.5625 2.66042 8.05613 2.66042 6.19792ZM6.025 3.89583C4.7536 3.89583 3.72292 4.92651 3.72292 6.19792C3.72292 7.46932 4.7536 8.5 6.025 8.5C7.29641 8.5 8.32709 7.46932 8.32709 6.19792C8.32709 4.92651 7.29641 3.89583 6.025 3.89583Z" fill="#FF5A3C"/>
<path fill-rule="evenodd" clip-rule="evenodd" d="M0.0214255 5.38819C0.272407 2.34334 2.81685 0 5.87202 0H6.17798C9.23316 0 11.7776 2.34334 12.0286 5.38819C12.1634 7.02383 11.6582 8.64796 10.6193 9.91849L7.22419 14.0706C6.6044 14.8286 5.4456 14.8286 4.82581 14.0706L1.43073 9.91849C0.391843 8.64797 -0.113398 7.02383 0.0214255 5.38819ZM5.87202 1.0625C3.36981 1.0625 1.28589 2.98171 1.08033 5.47547C0.968124 6.83678 1.38862 8.1885 2.25326 9.24593L5.64834 13.398C5.84302 13.6361 6.20699 13.6361 6.40166 13.398L9.79675 9.24592C10.6614 8.1885 11.0819 6.83678 10.9697 5.47547C10.7641 2.98171 8.6802 1.0625 6.17798 1.0625H5.87202Z" fill="#FF5A3C"/>
</svg>
