<svg width="14" height="14" viewBox="0 0 14 14" fill="none" xmlns="http://www.w3.org/2000/svg">
<path d="M6.57715 3.17871C4.70215 3.17871 3.20801 4.70215 3.20801 6.54785C3.20801 8.42285 4.70215 9.91699 6.57715 9.91699C8.42285 9.91699 9.94629 8.42285 9.94629 6.54785C9.94629 4.70215 8.42285 3.17871 6.57715 3.17871ZM6.57715 8.74512C5.37598 8.74512 4.37988 7.77832 4.37988 6.54785C4.37988 5.34668 5.34668 4.37988 6.57715 4.37988C7.77832 4.37988 8.74512 5.34668 8.74512 6.54785C8.74512 7.77832 7.77832 8.74512 6.57715 8.74512ZM10.8545 3.06152C10.8545 2.62207 10.5029 2.27051 10.0635 2.27051C9.62402 2.27051 9.27246 2.62207 9.27246 3.06152C9.27246 3.50098 9.62402 3.85254 10.0635 3.85254C10.5029 3.85254 10.8545 3.50098 10.8545 3.06152ZM13.0811 3.85254C13.0225 2.79785 12.7881 1.86035 12.0264 1.09863C11.2646 0.336914 10.3271 0.102539 9.27246 0.0439453C8.18848 -0.0146484 4.93652 -0.0146484 3.85254 0.0439453C2.79785 0.102539 1.88965 0.336914 1.09863 1.09863C0.336914 1.86035 0.102539 2.79785 0.0439453 3.85254C-0.0146484 4.93652 -0.0146484 8.18848 0.0439453 9.27246C0.102539 10.3271 0.336914 11.2354 1.09863 12.0264C1.88965 12.7881 2.79785 13.0225 3.85254 13.0811C4.93652 13.1396 8.18848 13.1396 9.27246 13.0811C10.3271 13.0225 11.2646 12.7881 12.0264 12.0264C12.7881 11.2354 13.0225 10.3271 13.0811 9.27246C13.1396 8.18848 13.1396 4.93652 13.0811 3.85254ZM11.6748 10.415C11.4697 11.001 11.001 11.4404 10.4443 11.6748C9.56543 12.0264 7.51465 11.9385 6.57715 11.9385C5.61035 11.9385 3.55957 12.0264 2.70996 11.6748C2.12402 11.4404 1.68457 11.001 1.4502 10.415C1.09863 9.56543 1.18652 7.51465 1.18652 6.54785C1.18652 5.61035 1.09863 3.55957 1.4502 2.68066C1.68457 2.12402 2.12402 1.68457 2.70996 1.4502C3.55957 1.09863 5.61035 1.18652 6.57715 1.18652C7.51465 1.18652 9.56543 1.09863 10.4443 1.4502C11.001 1.65527 11.4404 2.12402 11.6748 2.68066C12.0264 3.55957 11.9385 5.61035 11.9385 6.54785C11.9385 7.51465 12.0264 9.56543 11.6748 10.415Z" fill="white"/>
</svg>
