<svg width="228" height="122" viewBox="0 0 228 122" fill="none" xmlns="http://www.w3.org/2000/svg">
<path d="M124.789 116.024C126.026 115.733 127.135 115.944 128.283 116.367C137.861 119.908 147.745 121.61 157.98 121.463C170.103 121.289 182.038 120.162 193.596 116.122C199.661 114.004 205.623 111.689 211.337 108.758C211.987 108.424 212.687 107.705 213.415 108.23C214.348 108.901 213.6 109.819 213.413 110.602C212.936 112.602 212.264 114.56 211.906 116.581C211.636 118.103 212.656 119.752 213.76 120.027C215.27 120.407 215.865 119.246 216.534 118.266C216.841 117.821 217.142 117.364 217.405 116.893C220.377 111.603 223.32 106.297 226.319 101.018C227.439 99.0424 227.617 97.1051 226.282 95.2203C224.975 93.3728 223.073 93.2459 221.018 93.6205C213.852 94.9166 206.679 96.1758 199.508 97.4686C198.548 97.6416 197.587 97.8743 196.679 98.2158C195.731 98.573 194.916 99.1982 194.984 100.35C195.052 101.532 195.966 101.977 196.976 102.155C197.934 102.325 198.924 102.32 199.887 102.472C200.915 102.63 202.036 102.314 203.04 103.001C202.56 104.091 201.532 104.212 200.681 104.586C189.101 109.663 176.957 112.36 164.354 112.989C156.523 113.381 148.702 113.381 141.019 111.476C140.351 111.309 139.419 111.472 139.253 110.266C142.468 108.12 145.579 105.772 148.521 103.197C165.391 88.4237 163.442 63.7696 148.82 51.2609C145.758 48.6418 142.638 46.0755 139.06 44.2521C129.723 39.4998 119.875 38.4469 109.998 42.0692C91.2632 48.9482 87.3286 71.0006 91.9194 83.4674C95.3808 92.8777 101.735 100.196 109.647 106.242C110.91 107.209 112.42 107.872 113.581 109.238C112.781 109.898 112.22 109.877 111.688 109.901C103.697 110.249 95.8187 109.485 88.1588 107.169C70.9447 101.961 55.7067 93.1372 42.199 81.4312C33.3035 73.7245 25.994 64.5294 19.4803 54.7718C11.0102 42.0644 5.19022 28.2992 3.5801 12.9749C3.18988 9.27705 3.07735 5.60961 5.23631 2.29901C5.64948 1.66565 6.28136 0.971696 5.48674 0.314743C4.63234 -0.39071 3.85914 0.22711 3.19716 0.824881C2.45416 1.4923 2.00193 2.35709 1.57883 3.24204C0.581823 5.33127 0.114144 7.54946 0.038187 9.84099C-0.311488 20.4041 1.74606 30.5671 5.91206 40.206C15.1939 61.6625 28.7877 79.9791 47.3933 94.2972C60.6623 104.514 75.2474 112.359 91.8377 115.922C102.792 118.279 113.797 118.623 124.789 116.024ZM124.917 105.738C115.678 101.057 107.662 95.0416 101.883 86.248C95.6536 76.7693 96.5412 62.8915 104.196 54.6103C108.484 49.9716 113.932 47.732 120.135 47.5538C126.913 47.3607 133.267 48.9206 138.809 53.0784C143.177 56.3556 147.234 59.892 149.74 64.8765C150.821 67.0273 151.481 69.2962 151.747 71.2931C153.598 81.087 151.177 89.2206 144.297 95.9988C140.162 100.072 135.528 103.406 130.206 105.779C128.412 106.581 126.746 106.661 124.917 105.738Z" fill="#FF5A3C"/>
</svg>
