<svg width="50" height="49" viewBox="0 0 50 49" fill="none" xmlns="http://www.w3.org/2000/svg">
<path d="M42.3195 33.1702C40.0921 30.8631 37.408 29.0255 34.4313 27.7696C31.4546 26.5137 28.2478 25.866 25.007 25.866C21.7661 25.866 18.5593 26.5137 15.5826 27.7696C12.6059 29.0255 9.92181 30.8631 7.69446 33.1702C7.21156 33.6757 6.94337 34.3425 6.94446 35.0349V42.1944C6.94446 42.9164 7.23712 43.6088 7.75805 44.1193C8.27899 44.6298 8.98553 44.9166 9.72224 44.9166H40.2778C41.0145 44.9166 41.721 44.6298 42.242 44.1193C42.7629 43.6088 43.0556 42.9164 43.0556 42.1944V35.0349C43.0604 34.3444 42.7973 33.6778 42.3195 33.1702V33.1702ZM40.2778 42.1944H9.72224V35.0213C11.6906 32.9901 14.0601 31.3726 16.6866 30.2674C19.3131 29.1621 22.1416 28.5921 25 28.5921C27.8584 28.5921 30.6869 29.1621 33.3134 30.2674C35.9399 31.3726 38.3094 32.9901 40.2778 35.0213V42.1944Z" fill="#FF5A3C"/>
<path d="M25.0001 23.1388C27.2557 23.1375 29.4407 22.3676 31.1807 20.961H30.8751C29.7485 20.9426 28.6596 20.5597 27.7779 19.8721C26.6425 20.3512 25.3972 20.5245 24.1705 20.3743C22.9439 20.224 21.7804 19.7556 20.8003 19.0174C19.8201 18.2792 19.0588 17.298 18.5949 16.1751C18.131 15.0521 17.9814 13.8282 18.1615 12.6297C18.3416 11.4312 18.8449 10.3015 19.6194 9.3573C20.3939 8.41311 21.4116 7.68864 22.5673 7.2587C23.723 6.82876 24.9749 6.70894 26.1936 6.9116C27.4124 7.11427 28.5538 7.63208 29.5001 8.41157L30.889 6.01601C29.6601 5.10379 28.2274 4.49105 26.7092 4.22837C25.1911 3.96569 23.6309 4.06059 22.1575 4.50524C20.6841 4.94989 19.3398 5.73154 18.2354 6.78569C17.131 7.83984 16.2982 9.13626 15.8058 10.568C15.3135 11.9997 15.1755 13.5256 15.4035 15.0198C15.6314 16.514 16.2187 17.9337 17.1169 19.1617C18.015 20.3896 19.1982 21.3907 20.5689 22.0822C21.9396 22.7737 23.4585 23.1359 25.0001 23.1388Z" fill="#FF5A3C"/>
<path d="M37.2916 1.5516L29.3471 14.9722C29.1623 15.238 29.0562 15.5488 29.0406 15.8702C29.025 16.1915 29.1004 16.5108 29.2586 16.7927C29.4168 17.0746 29.6516 17.308 29.9369 17.4672C30.2222 17.6263 30.5468 17.705 30.8749 17.6944H46.7777C47.1058 17.705 47.4305 17.6263 47.7158 17.4672C48.001 17.308 48.2358 17.0746 48.394 16.7927C48.5522 16.5108 48.6277 16.1915 48.612 15.8702C48.5964 15.5488 48.4903 15.238 48.3055 14.9722L40.361 1.5516C40.2044 1.28898 39.9803 1.07115 39.711 0.919761C39.4417 0.768376 39.1367 0.688721 38.8263 0.688721C38.5159 0.688721 38.2109 0.768376 37.9416 0.919761C37.6724 1.07115 37.4483 1.28898 37.2916 1.5516V1.5516Z" fill="#FF5A3C"/>
</svg>
