<svg width="51" height="51" viewBox="0 0 51 51" fill="none" xmlns="http://www.w3.org/2000/svg">
<path d="M47.7559 24.4942L26.5059 3.24423C26.2404 2.98038 25.8814 2.83228 25.5071 2.83228C25.1329 2.83228 24.7738 2.98038 24.5084 3.24423L3.25837 24.4942C3.02628 24.7652 2.90501 25.1138 2.91878 25.4704C2.93255 25.8269 3.08036 26.1651 3.33266 26.4174C3.58496 26.6697 3.92317 26.8175 4.27971 26.8313C4.63625 26.8451 4.98486 26.7238 5.25587 26.4917L25.5 6.24756L45.7442 26.5059C46.0152 26.738 46.3638 26.8593 46.7204 26.8455C47.0769 26.8317 47.4151 26.6839 47.6674 26.4316C47.9197 26.1793 48.0675 25.8411 48.0813 25.4846C48.0951 25.128 47.9738 24.7794 47.7417 24.5084L47.7559 24.4942Z" fill="#FF5A3C"/>
<path d="M39.6667 45.3332H32.5833V31.1666H18.4167V45.3332H11.3333V25.4999L8.5 28.3332V45.3332C8.5 46.0847 8.79851 46.8054 9.32986 47.3367C9.86122 47.8681 10.5819 48.1666 11.3333 48.1666H21.25V33.9999H29.75V48.1666H39.6667C40.4181 48.1666 41.1388 47.8681 41.6701 47.3367C42.2015 46.8054 42.5 46.0847 42.5 45.3332V27.9932L39.6667 25.1599V45.3332Z" fill="#FF5A3C"/>
</svg>
