<svg width="44" height="46" viewBox="0 0 44 46" fill="none" xmlns="http://www.w3.org/2000/svg">
<path d="M21.25 0C32.9885 0 42.5043 9.70233 42.5043 21.671C42.5043 22.5182 42.4554 23.3545 42.3619 24.1778C41.4746 23.2504 40.4455 22.4762 39.3146 21.8855V21.6688C39.3146 20.176 39.1425 18.7222 38.8131 17.3355H31.6774C31.7836 18.4578 31.8474 19.6105 31.8686 20.7827C30.7445 20.995 29.6778 21.3677 28.6896 21.8833V21.671C28.6896 20.1738 28.6131 18.7243 28.4686 17.3355H14.0314C13.6576 20.9437 13.7541 24.5865 14.3182 28.1688H23.1094C22.7107 29.2107 22.4589 30.3049 22.3614 31.4188H15.0025C16.388 36.6492 18.7977 40.0898 21.25 40.0898C22.2147 40.0898 23.1753 39.5547 24.0678 38.5862C24.8349 39.9208 25.8358 41.2338 27.0406 42.5252C25.1983 43.056 23.256 43.3398 21.2479 43.3398C9.5115 43.3398 3.55917e-07 33.6375 3.55917e-07 21.671C-0.00212464 9.70233 9.5115 0 21.25 0ZM11.7045 31.421H5.92025C7.97228 34.7675 11.0209 37.3566 14.62 38.8093C13.5108 37.0327 12.5949 34.8097 11.9213 32.2768L11.7045 31.421V31.421ZM10.8247 17.3355H3.689L3.67838 17.3723C3.34938 18.7806 3.18391 20.2234 3.18538 21.671C3.18538 23.959 3.59338 26.1495 4.34138 28.171H11.084C10.7735 26.0182 10.62 23.8448 10.625 21.6688C10.625 20.1868 10.693 18.7352 10.8269 17.3333L10.8247 17.3355ZM14.62 4.5305L14.5711 4.54783C10.2221 6.31848 6.71387 9.73636 4.78125 14.0855H11.2582C11.9255 10.2895 13.0857 6.98317 14.6221 4.5305H14.62ZM21.25 3.25L21.0014 3.26083C18.3175 3.51217 15.7186 7.84983 14.5137 14.0855H27.9905C26.7877 7.86717 24.2016 3.536 21.5199 3.263L21.25 3.25217V3.25ZM27.88 4.52833L28.1052 4.9075C29.529 7.31683 30.6064 10.4802 31.2396 14.0877H37.7166C35.8718 9.93652 32.5883 6.62638 28.4962 4.79267L27.88 4.5305V4.52833Z" fill="#FF5A3C"/>
<path d="M43.5625 32.5022C43.5625 29.9163 42.555 27.4364 40.7617 25.6079C38.9684 23.7794 36.5361 22.7522 34 22.7522C31.4639 22.7522 29.0316 23.7794 27.2383 25.6079C25.445 27.4364 24.4375 29.9163 24.4375 32.5022C24.4375 36.5387 27.455 40.768 33.3625 45.2855C33.5464 45.4262 33.7701 45.5022 34 45.5022C34.2299 45.5022 34.4536 45.4262 34.6375 45.2855C40.545 40.768 43.5625 36.5387 43.5625 32.5022ZM30.8125 32.5022C30.8125 31.6402 31.1483 30.8136 31.7461 30.2041C32.3439 29.5946 33.1546 29.2522 34 29.2522C34.8454 29.2522 35.6561 29.5946 36.2539 30.2041C36.8517 30.8136 37.1875 31.6402 37.1875 32.5022C37.1875 33.3642 36.8517 34.1908 36.2539 34.8003C35.6561 35.4098 34.8454 35.7522 34 35.7522C33.1546 35.7522 32.3439 35.4098 31.7461 34.8003C31.1483 34.1908 30.8125 33.3642 30.8125 32.5022Z" fill="#FF5A3C"/>
</svg>
